<svg width="28" height="28" viewBox="0 0 28 28" fill="none" xmlns="http://www.w3.org/2000/svg">
<path fill-rule="evenodd" clip-rule="evenodd" d="M7.00005 2.80005C7.37135 2.80005 7.72745 2.94755 7.99 3.2101C8.25255 3.47265 8.40005 3.82875 8.40005 4.20005V5.60005H9.80005C10.1714 5.60005 10.5275 5.74755 10.79 6.0101C11.0526 6.27265 11.2001 6.62875 11.2001 7.00005C11.2001 7.37135 11.0526 7.72745 10.79 7.99C10.5275 8.25255 10.1714 8.40005 9.80005 8.40005H8.40005V9.80005C8.40005 10.1714 8.25255 10.5274 7.99 10.79C7.72745 11.0525 7.37135 11.2 7.00005 11.2C6.62874 11.2 6.27265 11.0525 6.0101 10.79C5.74755 10.5274 5.60005 10.1714 5.60005 9.80005V8.40005H4.20005C3.82874 8.40005 3.47265 8.25255 3.2101 7.99C2.94755 7.72745 2.80005 7.37135 2.80005 7.00005C2.80005 6.62875 2.94755 6.27265 3.2101 6.0101C3.47265 5.74755 3.82874 5.60005 4.20005 5.60005H5.60005V4.20005C5.60005 3.82875 5.74755 3.47265 6.0101 3.2101C6.27265 2.94755 6.62874 2.80005 7.00005 2.80005ZM7.00005 16.8C7.37135 16.8 7.72745 16.9475 7.99 17.2101C8.25255 17.4727 8.40005 17.8287 8.40005 18.2V19.6H9.80005C10.1714 19.6 10.5275 19.7475 10.79 20.0101C11.0526 20.2727 11.2001 20.6287 11.2001 21C11.2001 21.3714 11.0526 21.7274 10.79 21.99C10.5275 22.2525 10.1714 22.4 9.80005 22.4H8.40005V23.8C8.40005 24.1714 8.25255 24.5274 7.99 24.79C7.72745 25.0525 7.37135 25.2 7.00005 25.2C6.62874 25.2 6.27265 25.0525 6.0101 24.79C5.74755 24.5274 5.60005 24.1714 5.60005 23.8V22.4H4.20005C3.82874 22.4 3.47265 22.2525 3.2101 21.99C2.94755 21.7274 2.80005 21.3714 2.80005 21C2.80005 20.6287 2.94755 20.2727 3.2101 20.0101C3.47265 19.7475 3.82874 19.6 4.20005 19.6H5.60005V18.2C5.60005 17.8287 5.74755 17.4727 6.0101 17.2101C6.27265 16.9475 6.62874 16.8 7.00005 16.8ZM16.8001 2.80005C17.1091 2.79995 17.4094 2.90206 17.6542 3.09046C17.8991 3.27886 18.0748 3.54298 18.1539 3.84165L19.8045 10.08L24.5001 12.7876C24.7129 12.9105 24.8896 13.0873 25.0125 13.3001C25.1353 13.5129 25.2 13.7543 25.2 14C25.2 14.2458 25.1353 14.4872 25.0125 14.7C24.8896 14.9128 24.7129 15.0896 24.5001 15.2124L19.8045 17.9214L18.1525 24.1584C18.0732 24.4568 17.8976 24.7206 17.6529 24.9089C17.4082 25.0971 17.1081 25.1991 16.7994 25.1991C16.4907 25.1991 16.1906 25.0971 15.9459 24.9089C15.7012 24.7206 15.5255 24.4568 15.4463 24.1584L13.7957 17.92L9.10005 15.2124C8.88724 15.0896 8.71052 14.9128 8.58766 14.7C8.46479 14.4872 8.40011 14.2458 8.40011 14C8.40011 13.7543 8.46479 13.5129 8.58766 13.3001C8.71052 13.0873 8.88724 12.9105 9.10005 12.7876L13.7957 10.0786L15.4477 3.84165C15.5267 3.54321 15.7022 3.27927 15.9468 3.09089C16.1914 2.90251 16.4914 2.80026 16.8001 2.80005Z" fill="#5C9EAD"/>
</svg>
