<svg width="28" height="28" viewBox="0 0 28 28" fill="none" xmlns="http://www.w3.org/2000/svg">
<path fill-rule="evenodd" clip-rule="evenodd" d="M13.9983 1.75C14.2765 1.7497 14.5477 1.83786 14.7726 2.00174C14.9975 2.16563 15.1645 2.39676 15.2495 2.66175L21 20.6325L23.2505 13.601C23.3351 13.336 23.5017 13.1047 23.7263 12.9405C23.9508 12.7763 24.2218 12.6877 24.5 12.6875H26.6875C27.0356 12.6875 27.3694 12.8258 27.6156 13.0719C27.8617 13.3181 28 13.6519 28 14C28 14.3481 27.8617 14.6819 27.6156 14.9281C27.3694 15.1742 27.0356 15.3125 26.6875 15.3125H25.4572L22.2495 25.3383C22.1644 25.6028 21.9976 25.8335 21.7731 25.9971C21.5486 26.1608 21.2779 26.249 21 26.249C20.7221 26.249 20.4514 26.1608 20.2269 25.9971C20.0024 25.8335 19.8356 25.6028 19.7505 25.3383L14.0088 7.3955L10.0013 20.083C9.91857 20.3444 9.75609 20.5734 9.53662 20.7378C9.31714 20.9022 9.0517 20.9937 8.77756 20.9995C8.50342 21.0053 8.23435 20.925 8.00813 20.7701C7.78191 20.6151 7.6099 20.3932 7.51625 20.1355L5.30425 14.0525L5.18175 14.4165C5.09474 14.6777 4.92777 14.905 4.70447 15.0661C4.48117 15.2272 4.21285 15.314 3.9375 15.3143H1.3125C0.964403 15.3143 0.630564 15.176 0.384422 14.9298C0.138281 14.6837 0 14.3498 0 14.0018C0 13.6537 0.138281 13.3198 0.384422 13.0737C0.630564 12.8275 0.964403 12.6893 1.3125 12.6893H2.9925L4.004 9.6495C4.08975 9.39059 4.25402 9.16482 4.474 9.00358C4.69397 8.84234 4.95871 8.75362 5.23142 8.74977C5.50414 8.74593 5.77128 8.82713 5.99571 8.9821C6.22015 9.13707 6.39073 9.35811 6.48375 9.6145L8.6625 15.6083L12.7487 2.66875C12.8324 2.40273 12.9986 2.17028 13.2233 2.00508C13.4479 1.83989 13.7194 1.75054 13.9983 1.75V1.75Z" fill="#5C9EAD"/>
</svg>
