<svg width="28" height="28" viewBox="0 0 28 28" fill="none" xmlns="http://www.w3.org/2000/svg">
<path fill-rule="evenodd" clip-rule="evenodd" d="M11.7143 1.75C11.7143 1.28587 11.9024 0.840752 12.2373 0.512563C12.5722 0.184374 13.0264 0 13.5 0C13.9736 0 14.4278 0.184374 14.7627 0.512563C15.0976 0.840752 15.2857 1.28587 15.2857 1.75V11.375C15.2857 11.6071 15.3798 11.8296 15.5472 11.9937C15.7147 12.1578 15.9418 12.25 16.1786 12.25C16.4154 12.25 16.6425 12.1578 16.8099 11.9937C16.9774 11.8296 17.0714 11.6071 17.0714 11.375V3.5C17.0714 3.03587 17.2596 2.59075 17.5945 2.26256C17.9293 1.93437 18.3835 1.75 18.8571 1.75C19.3307 1.75 19.7849 1.93437 20.1198 2.26256C20.4547 2.59075 20.6429 3.03587 20.6429 3.5V11.375C20.6429 11.6071 20.7369 11.8296 20.9044 11.9937C21.0718 12.1578 21.2989 12.25 21.5357 12.25C21.7725 12.25 21.9996 12.1578 22.1671 11.9937C22.3345 11.8296 22.4286 11.6071 22.4286 11.375V7C22.4286 6.53587 22.6167 6.09075 22.9516 5.76256C23.2865 5.43437 23.7407 5.25 24.2143 5.25C24.6879 5.25 25.1421 5.43437 25.477 5.76256C25.8119 6.09075 26 6.53587 26 7V15.75C26 17.3587 25.6767 18.9516 25.0485 20.4379C24.4203 21.9241 23.4996 23.2745 22.3388 24.4121C21.1781 25.5496 19.8001 26.4519 18.2835 27.0675C16.767 27.6831 15.1415 28 13.5 28C11.8585 28 10.233 27.6831 8.71646 27.0675C7.19989 26.4519 5.8219 25.5496 4.66117 24.4121C3.50043 23.2745 2.57969 21.9241 1.95151 20.4379C1.32332 18.9516 1 17.3587 1 15.75V12.25C1 11.7859 1.18814 11.3408 1.52302 11.0126C1.85791 10.6844 2.31211 10.5 2.78571 10.5C3.25932 10.5 3.71352 10.6844 4.0484 11.0126C4.38329 11.3408 4.57143 11.7859 4.57143 12.25V16.625C4.57143 16.8571 4.6655 17.0796 4.83294 17.2437C5.00038 17.4078 5.22749 17.5 5.46429 17.5C5.70109 17.5 5.92819 17.4078 6.09563 17.2437C6.26307 17.0796 6.35714 16.8571 6.35714 16.625V3.5C6.35714 3.03587 6.54528 2.59075 6.88017 2.26256C7.21505 1.93437 7.66926 1.75 8.14286 1.75C8.61646 1.75 9.07066 1.93437 9.40555 2.26256C9.74043 2.59075 9.92857 3.03587 9.92857 3.5V11.375C9.92857 11.6071 10.0226 11.8296 10.1901 11.9937C10.3575 12.1578 10.5846 12.25 10.8214 12.25C11.0582 12.25 11.2853 12.1578 11.4528 11.9937C11.6202 11.8296 11.7143 11.6071 11.7143 11.375V1.75Z" fill="white"/>
</svg>
