<svg width="28" height="28" viewBox="0 0 28 28" fill="none" xmlns="http://www.w3.org/2000/svg">
<path d="M25.2 7H2.8C1.2558 7 0 8.17731 0 9.625V25.375C0 26.8227 1.2558 28 2.8 28H25.2C26.7442 28 28 26.8227 28 25.375V9.625C28 8.17731 26.7442 7 25.2 7ZM9.401 12.25C11.0124 12.25 12.201 13.3643 12.201 14.875C12.201 16.3857 11.0124 17.5 9.401 17.5C7.7896 17.5 6.601 16.3857 6.601 14.875C6.601 13.3643 7.7882 12.25 9.401 12.25ZM14.602 22.75H4.2V22.1397C4.2 20.3376 6.5464 18.4844 9.401 18.4844C12.2556 18.4844 14.602 20.3376 14.602 22.1397V22.75ZM23.8 21.4375H18.2V18.8125H23.8V21.4375ZM23.8 16.1875H16.8V13.5625H23.8V16.1875Z" fill="#5C9EAD"/>
</svg>
