<svg width="28" height="28" viewBox="0 0 28 28" fill="none" xmlns="http://www.w3.org/2000/svg">
<path d="M26.963 9.59395V20.3883C26.9631 21.4888 26.5514 22.5477 25.8123 23.3477C25.0733 24.1476 24.063 24.628 22.9886 24.6904L22.7501 24.697H5.25007C4.17397 24.6971 3.13863 24.276 2.35644 23.5201C1.57425 22.7643 1.10452 21.731 1.04359 20.6322L1.03711 20.3883V9.59395L13.549 16.297C13.6882 16.3715 13.8429 16.4105 14.0001 16.4105C14.1572 16.4105 14.312 16.3715 14.4512 16.297L26.963 9.59395ZM5.25007 3.48486H22.7501C23.7943 3.48473 24.8014 3.88126 25.576 4.59753C26.3507 5.3138 26.8375 6.29876 26.9423 7.36138L14.0001 14.2951L1.05785 7.36138C1.15834 6.34096 1.61143 5.39066 2.33567 4.68131C3.05991 3.97196 4.00781 3.55007 5.00896 3.49149L5.25007 3.48486H22.7501H5.25007Z" fill="white"/>
</svg>
