<svg width="28" height="28" viewBox="0 0 28 28" fill="none" xmlns="http://www.w3.org/2000/svg">
<path d="M17.7888 18.795L19.7488 16.835C20.0128 16.5743 20.3468 16.3959 20.7103 16.3213C21.0737 16.2467 21.451 16.2793 21.7963 16.415L24.1851 17.3688C24.534 17.5104 24.8332 17.7522 25.045 18.0636C25.2568 18.3751 25.3716 18.7422 25.3751 19.1188V23.4938C25.373 23.75 25.3192 24.0031 25.2167 24.2379C25.1143 24.4727 24.9654 24.6844 24.779 24.8602C24.5926 25.0359 24.3726 25.1721 24.1322 25.2606C23.8918 25.3491 23.6359 25.388 23.3801 25.375C6.64131 24.3338 3.26381 10.1588 2.62506 4.73379C2.5954 4.46738 2.6225 4.19772 2.70455 3.94253C2.7866 3.68735 2.92175 3.45243 3.10111 3.25323C3.28048 3.05403 3.49998 2.89506 3.74519 2.78679C3.9904 2.67852 4.25576 2.62339 4.52381 2.62504H8.75006C9.12719 2.62615 9.49536 2.74007 9.80723 2.95214C10.1191 3.1642 10.3604 3.46472 10.5001 3.81504L11.4538 6.20379C11.594 6.54772 11.6298 6.92535 11.5567 7.2895C11.4835 7.65364 11.3047 7.98817 11.0426 8.25129L9.08256 10.2113C9.08256 10.2113 10.2113 17.85 17.7888 18.795Z" fill="white"/>
</svg>
