<svg width="28" height="28" viewBox="0 0 28 28" fill="none" xmlns="http://www.w3.org/2000/svg">
<path d="M18.6667 7.37128C18.6667 8.55804 18.175 9.69619 17.2998 10.5354C16.4247 11.3745 15.2377 11.846 14 11.846C12.7623 11.846 11.5753 11.3745 10.7002 10.5354C9.825 9.69619 9.33333 8.55804 9.33333 7.37128C9.33333 6.18452 9.825 5.04637 10.7002 4.20721C11.5753 3.36804 12.7623 2.89661 14 2.89661C15.2377 2.89661 16.4247 3.36804 17.2998 4.20721C18.175 5.04637 18.6667 6.18452 18.6667 7.37128V7.37128ZM26.4444 10.3544C26.4444 11.1456 26.1167 11.9043 25.5332 12.4638C24.9498 13.0232 24.1585 13.3375 23.3333 13.3375C22.5082 13.3375 21.7169 13.0232 21.1334 12.4638C20.55 11.9043 20.2222 11.1456 20.2222 10.3544C20.2222 9.56322 20.55 8.80446 21.1334 8.24501C21.7169 7.68557 22.5082 7.37128 23.3333 7.37128C24.1585 7.37128 24.9498 7.68557 25.5332 8.24501C26.1167 8.80446 26.4444 9.56322 26.4444 10.3544V10.3544ZM20.2222 20.7953C20.2222 19.213 19.5667 17.6954 18.3998 16.5765C17.2329 15.4577 15.6502 14.8291 14 14.8291C12.3498 14.8291 10.7671 15.4577 9.60023 16.5765C8.43333 17.6954 7.77778 19.213 7.77778 20.7953V25.27H20.2222V20.7953ZM7.77778 10.3544C7.77778 11.1456 7.45 11.9043 6.86656 12.4638C6.28311 13.0232 5.49179 13.3375 4.66667 13.3375C3.84155 13.3375 3.05023 13.0232 2.46678 12.4638C1.88333 11.9043 1.55556 11.1456 1.55556 10.3544C1.55556 9.56322 1.88333 8.80446 2.46678 8.24501C3.05023 7.68557 3.84155 7.37128 4.66667 7.37128C5.49179 7.37128 6.28311 7.68557 6.86656 8.24501C7.45 8.80446 7.77778 9.56322 7.77778 10.3544V10.3544ZM23.3333 25.27V20.7953C23.3356 19.2788 22.934 17.7869 22.1667 16.4608C22.8563 16.2916 23.5772 16.2756 24.2742 16.4142C24.9713 16.5527 25.6261 16.8421 26.1888 17.2602C26.7515 17.6783 27.2072 18.2141 27.5211 18.8268C27.835 19.4394 27.9988 20.1127 28 20.7953V25.27H23.3333ZM5.83333 16.4608C5.06605 17.7869 4.66449 19.2788 4.66667 20.7953V25.27H4.13342e-07V20.7953C-0.000299395 20.1122 0.162499 19.4382 0.475918 18.8247C0.789337 18.2113 1.24506 17.6749 1.80815 17.2565C2.37125 16.838 3.02677 16.5488 3.72448 16.4109C4.42219 16.273 5.14357 16.2901 5.83333 16.4608V16.4608Z" fill="#EEEEEE"/>
</svg>
