<svg width="28" height="28" viewBox="0 0 28 28" fill="none" xmlns="http://www.w3.org/2000/svg">
<path fill-rule="evenodd" clip-rule="evenodd" d="M7 0C6.53587 0 6.09075 0.184374 5.76256 0.512563C5.43437 0.840752 5.25 1.28587 5.25 1.75V3.5H3.5C2.57174 3.5 1.6815 3.86875 1.02513 4.52513C0.368749 5.1815 0 6.07174 0 7V24.5C0 25.4283 0.368749 26.3185 1.02513 26.9749C1.6815 27.6313 2.57174 28 3.5 28H24.5C25.4283 28 26.3185 27.6313 26.9749 26.9749C27.6313 26.3185 28 25.4283 28 24.5V7C28 6.07174 27.6313 5.1815 26.9749 4.52513C26.3185 3.86875 25.4283 3.5 24.5 3.5H22.75V1.75C22.75 1.28587 22.5656 0.840752 22.2374 0.512563C21.9092 0.184374 21.4641 0 21 0C20.5359 0 20.0908 0.184374 19.7626 0.512563C19.4344 0.840752 19.25 1.28587 19.25 1.75V3.5H8.75V1.75C8.75 1.28587 8.56563 0.840752 8.23744 0.512563C7.90925 0.184374 7.46413 0 7 0V0ZM7 8.75C6.53587 8.75 6.09075 8.93437 5.76256 9.26256C5.43437 9.59075 5.25 10.0359 5.25 10.5C5.25 10.9641 5.43437 11.4092 5.76256 11.7374C6.09075 12.0656 6.53587 12.25 7 12.25H21C21.4641 12.25 21.9092 12.0656 22.2374 11.7374C22.5656 11.4092 22.75 10.9641 22.75 10.5C22.75 10.0359 22.5656 9.59075 22.2374 9.26256C21.9092 8.93437 21.4641 8.75 21 8.75H7Z" fill="white"/>
</svg>
