<svg width="28" height="28" viewBox="0 0 28 28" fill="none" xmlns="http://www.w3.org/2000/svg">
<path fill-rule="evenodd" clip-rule="evenodd" d="M6.99999 2.80005C7.37129 2.80005 7.72739 2.94755 7.98994 3.2101C8.25249 3.47265 8.39999 3.82875 8.39999 4.20005V5.60005H9.79999C10.1713 5.60005 10.5274 5.74755 10.7899 6.0101C11.0525 6.27265 11.2 6.62875 11.2 7.00005C11.2 7.37135 11.0525 7.72745 10.7899 7.99C10.5274 8.25255 10.1713 8.40005 9.79999 8.40005H8.39999V9.80005C8.39999 10.1714 8.25249 10.5274 7.98994 10.79C7.72739 11.0525 7.37129 11.2 6.99999 11.2C6.62868 11.2 6.27259 11.0525 6.01004 10.79C5.74749 10.5274 5.59999 10.1714 5.59999 9.80005V8.40005H4.19999C3.82868 8.40005 3.47259 8.25255 3.21004 7.99C2.94749 7.72745 2.79999 7.37135 2.79999 7.00005C2.79999 6.62875 2.94749 6.27265 3.21004 6.0101C3.47259 5.74755 3.82868 5.60005 4.19999 5.60005H5.59999V4.20005C5.59999 3.82875 5.74749 3.47265 6.01004 3.2101C6.27259 2.94755 6.62868 2.80005 6.99999 2.80005ZM6.99999 16.8C7.37129 16.8 7.72739 16.9475 7.98994 17.2101C8.25249 17.4727 8.39999 17.8287 8.39999 18.2V19.6H9.79999C10.1713 19.6 10.5274 19.7475 10.7899 20.0101C11.0525 20.2727 11.2 20.6287 11.2 21C11.2 21.3714 11.0525 21.7274 10.7899 21.99C10.5274 22.2525 10.1713 22.4 9.79999 22.4H8.39999V23.8C8.39999 24.1714 8.25249 24.5274 7.98994 24.79C7.72739 25.0525 7.37129 25.2 6.99999 25.2C6.62868 25.2 6.27259 25.0525 6.01004 24.79C5.74749 24.5274 5.59999 24.1714 5.59999 23.8V22.4H4.19999C3.82868 22.4 3.47259 22.2525 3.21004 21.99C2.94749 21.7274 2.79999 21.3714 2.79999 21C2.79999 20.6287 2.94749 20.2727 3.21004 20.0101C3.47259 19.7475 3.82868 19.6 4.19999 19.6H5.59999V18.2C5.59999 17.8287 5.74749 17.4727 6.01004 17.2101C6.27259 16.9475 6.62868 16.8 6.99999 16.8ZM16.8 2.80005C17.109 2.79995 17.4093 2.90206 17.6541 3.09046C17.899 3.27886 18.0747 3.54298 18.1538 3.84165L19.8044 10.08L24.5 12.7876C24.7128 12.9105 24.8895 13.0873 25.0124 13.3001C25.1352 13.5129 25.1999 13.7543 25.1999 14C25.1999 14.2458 25.1352 14.4872 25.0124 14.7C24.8895 14.9128 24.7128 15.0896 24.5 15.2124L19.8044 17.9214L18.1524 24.1584C18.0731 24.4568 17.8975 24.7206 17.6528 24.9089C17.4081 25.0971 17.108 25.1991 16.7993 25.1991C16.4906 25.1991 16.1905 25.0971 15.9458 24.9089C15.7011 24.7206 15.5254 24.4568 15.4462 24.1584L13.7956 17.92L9.09999 15.2124C8.88718 15.0896 8.71046 14.9128 8.5876 14.7C8.46473 14.4872 8.40005 14.2458 8.40005 14C8.40005 13.7543 8.46473 13.5129 8.5876 13.3001C8.71046 13.0873 8.88718 12.9105 9.09999 12.7876L13.7956 10.0786L15.4476 3.84165C15.5266 3.54321 15.7021 3.27927 15.9467 3.09089C16.1913 2.90251 16.4913 2.80026 16.8 2.80005V2.80005Z" fill="#5C9EAD"/>
</svg>
