<svg width="28" height="28" viewBox="0 0 28 28" fill="none" xmlns="http://www.w3.org/2000/svg">
<g clip-path="url(#clip0_1014_1073)">
<path d="M19.25 5.25C19.25 2.35047 16.8995 0 14 0C11.1005 0 8.75 2.35047 8.75 5.25C8.75 8.14953 11.1005 10.5 14 10.5C16.8995 10.5 19.25 8.14953 19.25 5.25ZM12.7745 13.1852C9.52984 11.1989 4.27437 10.6531 1.62969 10.5027C0.741016 10.4524 0 11.1295 0 11.9842V24.1686C0 24.9523 0.633828 25.6058 1.44867 25.6479C3.83633 25.7731 8.66687 26.232 12.0055 27.9136C12.518 28.1717 13.1255 27.8201 13.1255 27.2645V13.8119C13.125 13.5565 12.9987 13.3224 12.7745 13.1852ZM26.3703 10.5027C23.7262 10.6526 18.4702 11.1989 15.2261 13.1852C15.0019 13.3224 14.8755 13.5658 14.8755 13.8212V27.2628C14.8755 27.8201 15.4848 28.1723 15.9988 27.9136C19.337 26.2336 24.1648 25.7748 26.5519 25.6495C27.3667 25.6069 28.0005 24.9534 28.0005 24.1697V11.9842C28 11.1295 27.259 10.4524 26.3703 10.5027V10.5027Z" fill="#5C9EAD"/>
</g>
<defs>
<clipPath id="clip0_1014_1073">
<rect width="28" height="28" fill="white"/>
</clipPath>
</defs>
</svg>
