<svg width="28" height="28" viewBox="0 0 28 28" fill="none" xmlns="http://www.w3.org/2000/svg">
<g clip-path="url(#clip0_1014_1037)">
<path d="M27.2594 4.35801L14.3372 0.0506069C14.1179 -0.016869 13.8834 -0.016869 13.6642 0.0506069L0.755401 4.35801H0.72848L0.593873 4.42532H0.580413L0.445806 4.50608C0.445806 4.51954 0.432346 4.51954 0.418885 4.533L0.3112 4.62723L0.216975 4.73491C0.216975 4.74837 0.203515 4.74837 0.203515 4.76183L0.122751 4.88298C0.122751 4.89644 0.122751 4.89644 0.10929 4.9099L0.0554477 5.03105L0.0150659 5.17911V5.2195C0.00178889 5.27224 -0.00275824 5.32681 0.00160525 5.38102V16.1495C0.00160525 16.4351 0.115059 16.709 0.317008 16.911C0.518956 17.1129 0.792858 17.2264 1.07846 17.2264C1.36405 17.2264 1.63796 17.1129 1.8399 16.911C2.04185 16.709 2.15531 16.4351 2.15531 16.1495V6.87516L6.67808 8.38275C5.82839 9.74281 5.38043 11.3153 5.38586 12.919C5.38636 14.3775 5.75712 15.8119 6.46342 17.088C7.16971 18.364 8.18841 19.4398 9.42405 20.2147C6.8563 21.186 4.66418 22.9492 3.16485 25.2489C3.01203 25.4906 2.96026 25.7826 3.02068 26.0621C3.08111 26.3416 3.2489 26.5861 3.48791 26.7431C3.6052 26.8208 3.73675 26.8745 3.87493 26.901C4.01311 26.9275 4.15518 26.9263 4.2929 26.8975C4.43062 26.8687 4.56126 26.8129 4.67724 26.7332C4.79323 26.6536 4.89225 26.5517 4.96858 26.4335C5.94599 24.9279 7.28426 23.6906 8.86169 22.8339C10.4391 21.9773 12.2057 21.5286 14.0007 21.5286C15.7957 21.5286 17.5622 21.9773 19.1396 22.8339C20.7171 23.6906 22.0553 24.9279 23.0328 26.4335C23.1311 26.5827 23.265 26.7052 23.4224 26.7898C23.5799 26.8744 23.7559 26.9185 23.9346 26.9181C24.1409 26.9202 24.3429 26.8592 24.5134 26.7431C24.7524 26.5861 24.9202 26.3416 24.9807 26.0621C25.0411 25.7826 24.9893 25.4906 24.8365 25.2489C23.3372 22.9492 21.145 21.186 18.5773 20.2147C19.8129 19.4398 20.8316 18.364 21.5379 17.088C22.2442 15.8119 22.615 14.3775 22.6155 12.919C22.6209 11.3153 22.1729 9.74281 21.3233 8.38275L27.2594 6.40403C27.4748 6.33322 27.6624 6.1962 27.7954 6.0125C27.9284 5.8288 28 5.60781 28 5.38102C28 5.15424 27.9284 4.93325 27.7954 4.74955C27.6624 4.56585 27.4748 4.42883 27.2594 4.35801ZM20.4618 12.919C20.4618 14.6326 19.7811 16.276 18.5694 17.4877C17.3577 18.6994 15.7143 19.3801 14.0007 19.3801C12.2871 19.3801 10.6437 18.6994 9.43198 17.4877C8.22028 16.276 7.53956 14.6326 7.53956 12.919C7.54216 11.5403 7.98029 10.1976 8.7914 9.0827L13.6642 10.7114C13.8827 10.7833 14.1186 10.7833 14.3372 10.7114L19.2099 9.0827C20.021 10.1976 20.4592 11.5403 20.4618 12.919ZM19.2099 6.82131H19.1965L14.0007 8.55774L8.80486 6.82131H8.7914L4.484 5.38102L14.0007 2.20431L23.5173 5.38102L19.2099 6.82131Z" fill="white"/>
<path d="M21.116 6.81355H21.0977L14.0001 9L6.90241 6.81355H6.88402L1 4.99999L14.0001 1L27 4.99999L21.116 6.81355Z" fill="white"/>
</g>
<defs>
<clipPath id="clip0_1014_1037">
<rect width="28" height="28" fill="white"/>
</clipPath>
</defs>
</svg>
