<svg width="28" height="28" viewBox="0 0 28 28" fill="none" xmlns="http://www.w3.org/2000/svg">
<g clip-path="url(#clip0_1014_993)">
<path d="M18.6667 7.3714C18.6667 8.55816 18.175 9.69631 17.2998 10.5355C16.4247 11.3746 15.2377 11.8461 14 11.8461C12.7623 11.8461 11.5753 11.3746 10.7002 10.5355C9.825 9.69631 9.33333 8.55816 9.33333 7.3714C9.33333 6.18464 9.825 5.04649 10.7002 4.20733C11.5753 3.36816 12.7623 2.89673 14 2.89673C15.2377 2.89673 16.4247 3.36816 17.2998 4.20733C18.175 5.04649 18.6667 6.18464 18.6667 7.3714ZM26.4444 10.3545C26.4444 11.1457 26.1167 11.9044 25.5332 12.4639C24.9498 13.0233 24.1585 13.3376 23.3333 13.3376C22.5082 13.3376 21.7169 13.0233 21.1334 12.4639C20.55 11.9044 20.2222 11.1457 20.2222 10.3545C20.2222 9.56334 20.55 8.80458 21.1334 8.24513C21.7169 7.68569 22.5082 7.3714 23.3333 7.3714C24.1585 7.3714 24.9498 7.68569 25.5332 8.24513C26.1167 8.80458 26.4444 9.56334 26.4444 10.3545ZM20.2222 20.7954C20.2222 19.2131 19.5667 17.6955 18.3998 16.5766C17.2329 15.4578 15.6502 14.8292 14 14.8292C12.3498 14.8292 10.7671 15.4578 9.60023 16.5766C8.43333 17.6955 7.77778 19.2131 7.77778 20.7954V25.2701H20.2222V20.7954ZM7.77778 10.3545C7.77778 11.1457 7.45 11.9044 6.86656 12.4639C6.28311 13.0233 5.49179 13.3376 4.66667 13.3376C3.84155 13.3376 3.05023 13.0233 2.46678 12.4639C1.88333 11.9044 1.55556 11.1457 1.55556 10.3545C1.55556 9.56334 1.88333 8.80458 2.46678 8.24513C3.05023 7.68569 3.84155 7.3714 4.66667 7.3714C5.49179 7.3714 6.28311 7.68569 6.86656 8.24513C7.45 8.80458 7.77778 9.56334 7.77778 10.3545ZM23.3333 25.2701V20.7954C23.3356 19.2789 22.934 17.787 22.1667 16.4609C22.8563 16.2917 23.5772 16.2757 24.2742 16.4143C24.9713 16.5528 25.6261 16.8422 26.1888 17.2603C26.7515 17.6784 27.2072 18.2142 27.5211 18.8269C27.835 19.4395 27.9988 20.1128 28 20.7954V25.2701H23.3333ZM5.83333 16.4609C5.06605 17.787 4.66449 19.2789 4.66667 20.7954V25.2701H4.13342e-07V20.7954C-0.000299395 20.1123 0.162499 19.4383 0.475918 18.8248C0.789337 18.2114 1.24506 17.675 1.80815 17.2566C2.37125 16.8381 3.02677 16.5489 3.72448 16.411C4.42219 16.2731 5.14357 16.2902 5.83333 16.4609Z" fill="#5C9EAD"/>
</g>
<defs>
<clipPath id="clip0_1014_993">
<rect width="28" height="28" fill="white"/>
</clipPath>
</defs>
</svg>
