<svg width="28" height="28" viewBox="0 0 28 28" fill="none" xmlns="http://www.w3.org/2000/svg">
<g clip-path="url(#clip0_1021_990)">
<path d="M23.3333 21.0001C24.6167 21.0001 25.655 19.9501 25.655 18.6667L25.6667 7.00008C25.6667 5.71675 24.6167 4.66675 23.3333 4.66675H4.66667C3.38333 4.66675 2.33333 5.71675 2.33333 7.00008V18.6667C2.33333 19.9501 3.38333 21.0001 4.66667 21.0001H1.16667C0.525 21.0001 0 21.5251 0 22.1667C0 22.8084 0.525 23.3334 1.16667 23.3334H26.8333C27.475 23.3334 28 22.8084 28 22.1667C28 21.5251 27.475 21.0001 26.8333 21.0001H23.3333ZM5.83333 7.00008H22.1667C22.8083 7.00008 23.3333 7.52508 23.3333 8.16675V17.5001C23.3333 18.1417 22.8083 18.6667 22.1667 18.6667H5.83333C5.19167 18.6667 4.66667 18.1417 4.66667 17.5001V8.16675C4.66667 7.52508 5.19167 7.00008 5.83333 7.00008Z" fill="white"/>
</g>
<defs>
<clipPath id="clip0_1021_990">
<rect width="28" height="28" fill="white"/>
</clipPath>
</defs>
</svg>
