<svg width="28" height="28" viewBox="0 0 28 28" fill="none" xmlns="http://www.w3.org/2000/svg">
<path d="M24.3333 9.33333H17.8V2.8C17.8 2.05739 17.505 1.3452 16.9799 0.820101C16.4548 0.294999 15.7426 0 15 0H3.8C3.05739 0 2.3452 0.294999 1.8201 0.820101C1.295 1.3452 1 2.05739 1 2.8V27.0667C1 27.3142 1.09833 27.5516 1.27337 27.7266C1.4484 27.9017 1.6858 28 1.93333 28H8C8.12377 28 8.24247 27.9508 8.32998 27.8633C8.4175 27.7758 8.46667 27.6571 8.46667 27.5333V23.3596C8.46667 22.8573 8.85283 22.4262 9.35508 22.4012C9.48128 22.3951 9.60739 22.4147 9.72579 22.4588C9.84418 22.5029 9.95239 22.5706 10.0439 22.6577C10.1353 22.7449 10.2081 22.8497 10.2579 22.9658C10.3077 23.082 10.3333 23.207 10.3333 23.3333V27.5333C10.3333 27.6571 10.3825 27.7758 10.47 27.8633C10.5575 27.9508 10.6762 28 10.8 28H26.2C26.4475 28 26.6849 27.9017 26.86 27.7266C27.035 27.5516 27.1333 27.3142 27.1333 27.0667V12.1333C27.1333 11.3907 26.8383 10.6785 26.3132 10.1534C25.7881 9.62833 25.0759 9.33333 24.3333 9.33333ZM4.85467 24.2591C4.66137 24.2844 4.465 24.2485 4.29313 24.1565C4.12127 24.0645 3.98252 23.921 3.89637 23.7461C3.81023 23.5712 3.781 23.3737 3.8128 23.1814C3.84459 22.9891 3.93582 22.8115 4.07366 22.6737C4.21151 22.5358 4.38906 22.4446 4.5814 22.4128C4.77373 22.381 4.9712 22.4102 5.14608 22.4964C5.32096 22.5825 5.46447 22.7213 5.55648 22.8931C5.64848 23.065 5.68436 23.2614 5.65908 23.4547C5.6324 23.6587 5.53907 23.8481 5.3936 23.9936C5.24812 24.1391 5.05866 24.2324 4.85467 24.2591ZM4.85467 19.5924C4.66137 19.6177 4.465 19.5818 4.29313 19.4898C4.12127 19.3978 3.98252 19.2543 3.89637 19.0794C3.81023 18.9045 3.781 18.7071 3.8128 18.5147C3.84459 18.3224 3.93582 18.1448 4.07366 18.007C4.21151 17.8692 4.38906 17.7779 4.5814 17.7461C4.77373 17.7143 4.9712 17.7436 5.14608 17.8297C5.32096 17.9159 5.46447 18.0546 5.55648 18.2265C5.64848 18.3983 5.68436 18.5947 5.65908 18.788C5.6324 18.992 5.53907 19.1815 5.3936 19.3269C5.24812 19.4724 5.05866 19.5657 4.85467 19.5924ZM4.85467 14.9257C4.66137 14.951 4.465 14.9151 4.29313 14.8231C4.12127 14.7311 3.98252 14.5876 3.89637 14.4127C3.81023 14.2379 3.781 14.0404 3.8128 13.8481C3.84459 13.6557 3.93582 13.4782 4.07366 13.3403C4.21151 13.2025 4.38906 13.1113 4.5814 13.0795C4.77373 13.0477 4.9712 13.0769 5.14608 13.163C5.32096 13.2492 5.46447 13.3879 5.55648 13.5598C5.64848 13.7317 5.68436 13.928 5.65908 14.1213C5.6324 14.3253 5.53907 14.5148 5.3936 14.6603C5.24812 14.8057 5.05866 14.8991 4.85467 14.9257ZM4.85467 10.2591C4.66137 10.2844 4.465 10.2485 4.29313 10.1565C4.12127 10.0645 3.98252 9.92096 3.89637 9.74608C3.81023 9.5712 3.781 9.37373 3.8128 9.1814C3.84459 8.98906 3.93582 8.81151 4.07366 8.67367C4.21151 8.53582 4.38906 8.44459 4.5814 8.4128C4.77373 8.381 4.9712 8.41023 5.14608 8.49637C5.32096 8.58252 5.46447 8.72127 5.55648 8.89313C5.64848 9.065 5.68436 9.26137 5.65908 9.45467C5.6324 9.65866 5.53907 9.84812 5.3936 9.9936C5.24812 10.1391 5.05866 10.2324 4.85467 10.2591ZM4.85467 5.59242C4.66137 5.6177 4.465 5.58182 4.29313 5.48981C4.12127 5.3978 3.98252 5.25429 3.89637 5.07941C3.81023 4.90453 3.781 4.70707 3.8128 4.51473C3.84459 4.3224 3.93582 4.14485 4.07366 4.007C4.21151 3.86915 4.38906 3.77793 4.5814 3.74613C4.77373 3.71433 4.9712 3.74356 5.14608 3.82971C5.32096 3.91586 5.46447 4.0546 5.55648 4.22647C5.64848 4.39834 5.68436 4.5947 5.65908 4.788C5.6324 4.99199 5.53907 5.18146 5.3936 5.32693C5.24812 5.4724 5.05866 5.56574 4.85467 5.59242ZM9.52133 19.5924C9.32803 19.6177 9.13167 19.5818 8.9598 19.4898C8.78793 19.3978 8.64919 19.2543 8.56304 19.0794C8.47689 18.9045 8.44767 18.7071 8.47946 18.5147C8.51126 18.3224 8.60248 18.1448 8.74033 18.007C8.87818 17.8692 9.05573 17.7779 9.24807 17.7461C9.4404 17.7143 9.63786 17.7436 9.81274 17.8297C9.98762 17.9159 10.1311 18.0546 10.2231 18.2265C10.3151 18.3983 10.351 18.5947 10.3257 18.788C10.2991 18.992 10.2057 19.1815 10.0603 19.3269C9.91479 19.4724 9.72533 19.5657 9.52133 19.5924ZM9.52133 14.9257C9.32803 14.951 9.13167 14.9151 8.9598 14.8231C8.78793 14.7311 8.64919 14.5876 8.56304 14.4127C8.47689 14.2379 8.44767 14.0404 8.47946 13.8481C8.51126 13.6557 8.60248 13.4782 8.74033 13.3403C8.87818 13.2025 9.05573 13.1113 9.24807 13.0795C9.4404 13.0477 9.63786 13.0769 9.81274 13.163C9.98762 13.2492 10.1311 13.3879 10.2231 13.5598C10.3151 13.7317 10.351 13.928 10.3257 14.1213C10.2991 14.3253 10.2057 14.5148 10.0603 14.6603C9.91479 14.8057 9.72533 14.8991 9.52133 14.9257ZM9.52133 10.2591C9.32803 10.2844 9.13167 10.2485 8.9598 10.1565C8.78793 10.0645 8.64919 9.92096 8.56304 9.74608C8.47689 9.5712 8.44767 9.37373 8.47946 9.1814C8.51126 8.98906 8.60248 8.81151 8.74033 8.67367C8.87818 8.53582 9.05573 8.44459 9.24807 8.4128C9.4404 8.381 9.63786 8.41023 9.81274 8.49637C9.98762 8.58252 10.1311 8.72127 10.2231 8.89313C10.3151 9.065 10.351 9.26137 10.3257 9.45467C10.2991 9.65866 10.2057 9.84812 10.0603 9.9936C9.91479 10.1391 9.72533 10.2324 9.52133 10.2591ZM9.52133 5.59242C9.32803 5.6177 9.13167 5.58182 8.9598 5.48981C8.78793 5.3978 8.64919 5.25429 8.56304 5.07941C8.47689 4.90453 8.44767 4.70707 8.47946 4.51473C8.51126 4.3224 8.60248 4.14485 8.74033 4.007C8.87818 3.86915 9.05573 3.77793 9.24807 3.74613C9.4404 3.71433 9.63786 3.74356 9.81274 3.82971C9.98762 3.91586 10.1311 4.0546 10.2231 4.22647C10.3151 4.39834 10.351 4.5947 10.3257 4.788C10.2991 4.99199 10.2057 5.18146 10.0603 5.32693C9.91479 5.4724 9.72533 5.56574 9.52133 5.59242ZM14.188 24.2591C13.9947 24.2844 13.7983 24.2485 13.6265 24.1565C13.4546 24.0645 13.3159 23.921 13.2297 23.7461C13.1436 23.5712 13.1143 23.3737 13.1461 23.1814C13.1779 22.9891 13.2692 22.8115 13.407 22.6737C13.5448 22.5358 13.7224 22.4446 13.9147 22.4128C14.1071 22.381 14.3045 22.4102 14.4794 22.4964C14.6543 22.5825 14.7978 22.7213 14.8898 22.8931C14.9818 23.065 15.0177 23.2614 14.9924 23.4547C14.9657 23.6587 14.8724 23.8481 14.7269 23.9936C14.5815 24.1391 14.392 24.2324 14.188 24.2591ZM14.188 19.5924C13.9947 19.6177 13.7983 19.5818 13.6265 19.4898C13.4546 19.3978 13.3159 19.2543 13.2297 19.0794C13.1436 18.9045 13.1143 18.7071 13.1461 18.5147C13.1779 18.3224 13.2692 18.1448 13.407 18.007C13.5448 17.8692 13.7224 17.7779 13.9147 17.7461C14.1071 17.7143 14.3045 17.7436 14.4794 17.8297C14.6543 17.9159 14.7978 18.0546 14.8898 18.2265C14.9818 18.3983 15.0177 18.5947 14.9924 18.788C14.9657 18.992 14.8724 19.1815 14.7269 19.3269C14.5815 19.4724 14.392 19.5657 14.188 19.5924ZM14.188 14.9257C13.9947 14.951 13.7983 14.9151 13.6265 14.8231C13.4546 14.7311 13.3159 14.5876 13.2297 14.4127C13.1436 14.2379 13.1143 14.0404 13.1461 13.8481C13.1779 13.6557 13.2692 13.4782 13.407 13.3403C13.5448 13.2025 13.7224 13.1113 13.9147 13.0795C14.1071 13.0477 14.3045 13.0769 14.4794 13.163C14.6543 13.2492 14.7978 13.3879 14.8898 13.5598C14.9818 13.7317 15.0177 13.928 14.9924 14.1213C14.9657 14.3253 14.8724 14.5148 14.7269 14.6603C14.5815 14.8057 14.392 14.8991 14.188 14.9257ZM14.188 10.2591C13.9947 10.2844 13.7983 10.2485 13.6265 10.1565C13.4546 10.0645 13.3159 9.92096 13.2297 9.74608C13.1436 9.5712 13.1143 9.37373 13.1461 9.1814C13.1779 8.98906 13.2692 8.81151 13.407 8.67367C13.5448 8.53582 13.7224 8.44459 13.9147 8.4128C14.1071 8.381 14.3045 8.41023 14.4794 8.49637C14.6543 8.58252 14.7978 8.72127 14.8898 8.89313C14.9818 9.065 15.0177 9.26137 14.9924 9.45467C14.9657 9.65866 14.8724 9.84812 14.7269 9.9936C14.5815 10.1391 14.392 10.2324 14.188 10.2591ZM14.188 5.59242C13.9947 5.6177 13.7983 5.58182 13.6265 5.48981C13.4546 5.3978 13.3159 5.25429 13.2297 5.07941C13.1436 4.90453 13.1143 4.70707 13.1461 4.51473C13.1779 4.3224 13.2692 4.14485 13.407 4.007C13.5448 3.86915 13.7224 3.77793 13.9147 3.74613C14.1071 3.71433 14.3045 3.74356 14.4794 3.82971C14.6543 3.91586 14.7978 4.0546 14.8898 4.22647C14.9818 4.39834 15.0177 4.5947 14.9924 4.788C14.9657 4.99199 14.8724 5.18146 14.7269 5.32693C14.5815 5.4724 14.392 5.56574 14.188 5.59242ZM25.0333 26.1333H17.8V11.2H24.3333C24.5809 11.2 24.8183 11.2983 24.9933 11.4734C25.1683 11.6484 25.2667 11.8858 25.2667 12.1333V25.9C25.2667 25.9619 25.2421 26.0212 25.1983 26.065C25.1546 26.1088 25.0952 26.1333 25.0333 26.1333Z" fill="#5C9EAD"/>
<path d="M22.4666 22.4C22.282 22.4 22.1015 22.4547 21.948 22.5573C21.7945 22.6598 21.6749 22.8056 21.6043 22.9761C21.5336 23.1467 21.5151 23.3344 21.5512 23.5154C21.5872 23.6965 21.6761 23.8627 21.8066 23.9932C21.9371 24.1237 22.1034 24.2126 22.2845 24.2486C22.4655 24.2846 22.6532 24.2662 22.8237 24.1956C22.9943 24.125 23.14 24.0053 23.2426 23.8518C23.3452 23.6984 23.3999 23.5179 23.3999 23.3333C23.3999 23.0858 23.3016 22.8484 23.1265 22.6734C22.9515 22.4983 22.7141 22.4 22.4666 22.4ZM22.4666 17.7332C22.282 17.7332 22.1015 17.7881 21.948 17.8906C21.7945 17.9932 21.6749 18.1389 21.6043 18.3095C21.5336 18.48 21.5151 18.6676 21.5512 18.8486C21.5872 19.0297 21.6761 19.196 21.8066 19.3265C21.9371 19.457 22.1034 19.546 22.2845 19.5821C22.4655 19.6181 22.6532 19.5996 22.8237 19.5289C22.9943 19.4583 23.14 19.3387 23.2426 19.1852C23.3452 19.0317 23.3999 18.8512 23.3999 18.6667C23.3999 18.4191 23.3016 18.1817 23.1265 18.0067C22.9515 17.8316 22.7141 17.7332 22.4666 17.7332ZM22.4666 13.0667C22.282 13.0667 22.1015 13.1214 21.948 13.2239C21.7945 13.3265 21.6749 13.4723 21.6043 13.6428C21.5336 13.8134 21.5151 14.001 21.5512 14.1821C21.5872 14.3631 21.6761 14.5294 21.8066 14.66C21.9371 14.7905 22.1034 14.8793 22.2845 14.9153C22.4655 14.9513 22.6532 14.9329 22.8237 14.8623C22.9943 14.7916 23.14 14.672 23.2426 14.5185C23.3452 14.365 23.3999 14.1846 23.3999 14C23.3999 13.7524 23.3016 13.5151 23.1265 13.34C22.9515 13.165 22.7141 13.0667 22.4666 13.0667ZM18.7332 22.4C18.5486 22.4 18.3682 22.4547 18.2147 22.5573C18.0612 22.6598 17.9416 22.8056 17.8709 22.9761C17.8003 23.1467 17.7818 23.3344 17.8178 23.5154C17.8538 23.6965 17.9427 23.8627 18.0733 23.9932C18.2038 24.1237 18.3702 24.2126 18.5512 24.2486C18.7323 24.2846 18.9198 24.2662 19.0904 24.1956C19.2609 24.125 19.4067 24.0053 19.5093 23.8518C19.6118 23.6984 19.6666 23.5179 19.6666 23.3333C19.6666 23.0858 19.5682 22.8484 19.3932 22.6734C19.2182 22.4983 18.9808 22.4 18.7332 22.4ZM18.7332 17.7332C18.5486 17.7332 18.3682 17.7881 18.2147 17.8906C18.0612 17.9932 17.9416 18.1389 17.8709 18.3095C17.8003 18.48 17.7818 18.6676 17.8178 18.8486C17.8538 19.0297 17.9427 19.196 18.0733 19.3265C18.2038 19.457 18.3702 19.546 18.5512 19.5821C18.7323 19.6181 18.9198 19.5996 19.0904 19.5289C19.2609 19.4583 19.4067 19.3387 19.5093 19.1852C19.6118 19.0317 19.6666 18.8512 19.6666 18.6667C19.6666 18.4191 19.5682 18.1817 19.3932 18.0067C19.2182 17.8316 18.9808 17.7332 18.7332 17.7332ZM18.7332 13.0667C18.5486 13.0667 18.3682 13.1214 18.2147 13.2239C18.0612 13.3265 17.9416 13.4723 17.8709 13.6428C17.8003 13.8134 17.7818 14.001 17.8178 14.1821C17.8538 14.3631 17.9427 14.5294 18.0733 14.66C18.2038 14.7905 18.3702 14.8793 18.5512 14.9153C18.7323 14.9513 18.9198 14.9329 19.0904 14.8623C19.2609 14.7916 19.4067 14.672 19.5093 14.5185C19.6118 14.365 19.6666 14.1846 19.6666 14C19.6666 13.7524 19.5682 13.5151 19.3932 13.34C19.2182 13.165 18.9808 13.0667 18.7332 13.0667Z" fill="#5C9EAD"/>
</svg>
