<svg width="28" height="28" viewBox="0 0 28 28" fill="none" xmlns="http://www.w3.org/2000/svg">
<path d="M11.5843 11.6202C14.7931 11.6202 17.3944 9.01892 17.3944 5.81009C17.3944 2.60127 14.7931 0 11.5843 0C8.37544 0 5.77417 2.60127 5.77417 5.81009C5.77417 9.01892 8.37544 11.6202 11.5843 11.6202Z" fill="white"/>
<path d="M15.3079 22.2424H21.6036V23.5016H15.3079V22.2424Z" fill="white"/>
<path d="M9.91149 24.0408V26.7389C9.91149 26.9775 10.0062 27.2062 10.1749 27.3749C10.3436 27.5436 10.5724 27.6383 10.8109 27.6383H26.1006C26.3391 27.6383 26.5679 27.5436 26.7366 27.3749C26.9052 27.2062 27 26.9775 27 26.7389V17.745C27 17.5065 26.9052 17.2777 26.7366 17.109C26.5679 16.9404 26.3391 16.8456 26.1006 16.8456H19.8048V15.5235C19.8048 15.285 19.7101 15.0562 19.5414 14.8875C19.3727 14.7188 19.144 14.6241 18.9054 14.6241C18.6669 14.6241 18.4381 14.7188 18.2695 14.8875C18.1008 15.0562 18.006 15.285 18.006 15.5235V16.8456H16.2073V13.6258C14.6789 13.3761 13.133 13.2498 11.5844 13.248C8.16918 13.2335 4.79227 13.9672 1.69102 15.3976C1.1806 15.6384 0.749988 16.0207 0.450282 16.4989C0.150576 16.9772 -0.00564452 17.5314 0.000155846 18.0958V24.0408H9.91149ZM25.2012 25.8395H11.7103V18.6444H18.006V19.0221C18.006 19.2607 18.1008 19.4894 18.2695 19.6581C18.4381 19.8268 18.6669 19.9215 18.9054 19.9215C19.144 19.9215 19.3727 19.8268 19.5414 19.6581C19.7101 19.4894 19.8048 19.2607 19.8048 19.0221V18.6444H25.2012V25.8395Z" fill="white"/>
</svg>
